# xmcd
#
# Track frame offsets:
#	150
#	6497
#	10771
#	18808
#	22307
#	33445
#	42298
#	48694
#	50795
#	57624
#	66424
#	73073
#	83353
#	85228
#	91080
#	98269
# 
# Disc length: 1404 seconds
# 
# Revision: 5
# Processed by: cddbd v1.5.2PL0 Copyright (c) Steve Scherf et al.
# Submitted via: Advanced CD Ripper Pro
#
DISCID=cd057a10
DTITLE=Silkworm - Lifestyle
DYEAR=2000
DGENRE=Indie Rock
TTITLE0=Contempt
TTITLE1=Slave Wages
TTITLE2=Treat The New Guy Right
TTITLE3=Plain
TTITLE4=Roots
TTITLE5=Yr Web
TTITLE6=That's Entertainment
TTITLE7=Raging Bull
TTITLE8=Around the Outline
TTITLE9=Dead Air
TTITLE10=OOH LA LA
TTITLE11=The Bones
TTITLE12=
TTITLE13=
TTITLE14=
TTITLE15=
EXTD=YEAR: 2000 ID3G:  17
EXTT0=
EXTT1=
EXTT2=
EXTT3=
EXTT4=
EXTT5=
EXTT6=
EXTT7=
EXTT8=
EXTT9=
EXTT10=
EXTT11=
EXTT12=
EXTT13=
EXTT14=
EXTT15=
PLAYORDER=
